<svg xmlns="http://www.w3.org/2000/svg" height="800" width="1200" viewBox="-3.84 -5.99 33.28 35.94"><path d="M14.4533 1.52v-.08q0-.56.36-1 .36-.44.92-.44t1 .36q.44.36.48.96.04.6-.36 1-.4.4-.96.4l-.24.08.08.12-.08.44-.16 1.28q.08.08.08.16l-.16.8q-.08.16-.16.24l-.08.32q-.16.64-.28 1.04-.12.4-.2.64V8q-.08.4-.12.64-.04.24-.28.8-.16.32 0 1.04l.08.08q0 .24.2.56.2.32.2.56.08 1.6-.24 2.72l.16.48q.96.48.56 1.04l.4.16q.96.48 1.36.84.4.36.8.76.32.08.48.24l.24.08q1.68 1.12 3.36 2.72l.32.24v.08l-.08.16.24.16h.08q.24.16.32.16h.08q.08 0 .16-.08l.16-.08q.16-.16.32-.24h.32q.08 0 0 .08l-.32.16-.4.48h.56l.56.08q.24-.08.4-.16l.4-.24q.24-.08.48.16h.08q.08.08-.08.24l-.96.88q-.4.32-.72.4l-1.04.72q-.08.08-.16 0l-.24-.32-.16-.32-.2-.28-.24-.32-.2-.24-.16-.2-.32-.24q-.16 0-.32-.08l-1.04-.8q-.24 0-.56-.24-1.2-1.04-1.6-1.28l-.48-.32-.96-.16q-.48-.08-1.28-.48l-.64-.32q-.64-.32-.88-.32l-.32-.16q-.32-.08-.48-.16l-.16-.16q-.16 0-.32.08l-1.6.8-2 .88q-.8.64-1.52 1.04l-.88.4-1.36.96q-.16.16-.32 0l-.16.16q-.24.08-.32.08l-.32.16v.16h-.16l-.16.24q-.16.32-.32.36-.16.04-.2.12-.04.08-.08.12l-.16.16-.24.16-.36-.04-.48.08-.32.08q-.4.08-.64-.12t-.4-.6q-.16-.24.16-.4l.08-.08q.08-.08.24-.08h.48l.64-.24.32-.08q0-.16.08-.24.08-.08.24-.08v-.08q-.08-.16-.08-.32-.08-.16-.04-.24.04-.08.08-.08h.04l.08.24q.08.4.24.24l.08-.16q.08-.16.24-.16l.16.16.16-.16-.08-.08q0-.08.08-.08l.32-.32q.4-.48.96-.88 1.12-.88 2.4-1.36.4-.4.88-.4.32-.56.96-1.2.56-.4.8-.56.16-.32.4-.32h.08l.16-.16q.16-.08.24-.16v-.4q0-.4.08-.64t.4-.24l.32-.32q-.16-.32-.16-.72h-.08q-.16-.24-.16-.48-.24-.4-.32-.64h-.24q-.08.24-.4.32l-.08.16q-.32.56-.56.84-.24.28-.88.68-.4.4-.56.88-.08.24 0 .48l-.08.16h.08q0 .16.08.16h.08q.16.08.16.2 0 .12-.24.08-.24-.04-.36-.16t-.2-.12l-.24.24q-.16.24-.32.2-.16-.04-.08-.12l.08-.08q.08-.16 0-.16l-.64.16q-.08.08-.2 0-.12-.08.04-.16l.4-.16q0-.08-.08-.08-.32.16-.64.08l-.4-.08-.08-.08q0-.08.08-.08.32.08.8-.08l.56-.24.64-.72.08-.16q.32-.64.68-1.16.36-.52.76-.84l.08-.32q.16-.32.32-.56.16-.24.4-.64l.24-.32q.32-.48.72-.48l.24-.24q.08-.08.08-.24l.16-.16-.08-.08q-.48-.4-.48-.72-.08-.56.36-.96.44-.4.88-.36.44.04.68.28l.16.16q.08 0 .08.08l.32.16v.24q.16.16.16.24.16-.24.48-.56l.4-1.28q0-.32.16-.64l.16-.24v-.16l.24-.96h.16l.24-.96q.08-.24 0-.56l-.32-.8z" fill="#fff"/></svg>