<svg id="visual" viewBox="0 0 960 300" width="960" height="300" xmlns="http://www.w3.org/2000/svg" xmlns:xlink="http://www.w3.org/1999/xlink" version="1.1"><rect x="0" y="0" width="960" height="300" fill="#000000"></rect><path d="M0 107L6.3 100.5C12.7 94 25.3 81 38.2 78.5C51 76 64 84 76.8 74.2C89.7 64.3 102.3 36.7 115.2 30C128 23.3 141 37.7 153.8 40.3C166.7 43 179.3 34 192 48.3C204.7 62.7 217.3 100.3 230.2 103C243 105.7 256 73.3 268.8 65C281.7 56.7 294.3 72.3 307.2 70.2C320 68 333 48 345.8 61.2C358.7 74.3 371.3 120.7 384 129.2C396.7 137.7 409.3 108.3 422.2 96.2C435 84 448 89 460.8 80.2C473.7 71.3 486.3 48.7 499.2 43.2C512 37.7 525 49.3 537.8 69C550.7 88.7 563.3 116.3 576 116.8C588.7 117.3 601.3 90.7 614.2 82.5C627 74.3 640 84.7 652.8 79.8C665.7 75 678.3 55 691.2 61.5C704 68 717 101 729.8 106.7C742.7 112.3 755.3 90.7 768 79.8C780.7 69 793.3 69 806.2 81.2C819 93.3 832 117.7 844.8 117.8C857.7 118 870.3 94 883.2 72C896 50 909 30 921.8 37.5C934.7 45 947.3 80 953.7 97.5L960 115L960 0L953.7 0C947.3 0 934.7 0 921.8 0C909 0 896 0 883.2 0C870.3 0 857.7 0 844.8 0C832 0 819 0 806.2 0C793.3 0 780.7 0 768 0C755.3 0 742.7 0 729.8 0C717 0 704 0 691.2 0C678.3 0 665.7 0 652.8 0C640 0 627 0 614.2 0C601.3 0 588.7 0 576 0C563.3 0 550.7 0 537.8 0C525 0 512 0 499.2 0C486.3 0 473.7 0 460.8 0C448 0 435 0 422.2 0C409.3 0 396.7 0 384 0C371.3 0 358.7 0 345.8 0C333 0 320 0 307.2 0C294.3 0 281.7 0 268.8 0C256 0 243 0 230.2 0C217.3 0 204.7 0 192 0C179.3 0 166.7 0 153.8 0C141 0 128 0 115.2 0C102.3 0 89.7 0 76.8 0C64 0 51 0 38.2 0C25.3 0 12.7 0 6.3 0L0 0Z" fill="#383838" stroke-linecap="round" stroke-linejoin="miter"></path></svg>