<svg id="visual" viewBox="0 0 960 300" width="960" height="300" xmlns="http://www.w3.org/2000/svg" xmlns:xlink="http://www.w3.org/1999/xlink" version="1.1"><rect x="0" y="0" width="960" height="300" fill="#000000"></rect><path d="M0 126L6.3 122.5C12.7 119 25.3 112 38.2 106C51 100 64 95 76.8 96.2C89.7 97.3 102.3 104.7 115.2 117C128 129.3 141 146.7 153.8 130.8C166.7 115 179.3 66 192 51.5C204.7 37 217.3 57 230.2 57.3C243 57.7 256 38.3 268.8 50C281.7 61.7 294.3 104.3 307.2 103.3C320 102.3 333 57.7 345.8 58.3C358.7 59 371.3 105 384 124C396.7 143 409.3 135 422.2 119.8C435 104.7 448 82.3 460.8 86.3C473.7 90.3 486.3 120.7 499.2 132C512 143.3 525 135.7 537.8 137.3C550.7 139 563.3 150 576 148.2C588.7 146.3 601.3 131.7 614.2 118.2C627 104.7 640 92.3 652.8 97.2C665.7 102 678.3 124 691.2 119C704 114 717 82 729.8 59.2C742.7 36.3 755.3 22.7 768 20.8C780.7 19 793.3 29 806.2 41.8C819 54.7 832 70.3 844.8 68.5C857.7 66.7 870.3 47.3 883.2 58C896 68.7 909 109.3 921.8 119.3C934.7 129.3 947.3 108.7 953.7 98.3L960 88L960 0L953.7 0C947.3 0 934.7 0 921.8 0C909 0 896 0 883.2 0C870.3 0 857.7 0 844.8 0C832 0 819 0 806.2 0C793.3 0 780.7 0 768 0C755.3 0 742.7 0 729.8 0C717 0 704 0 691.2 0C678.3 0 665.7 0 652.8 0C640 0 627 0 614.2 0C601.3 0 588.7 0 576 0C563.3 0 550.7 0 537.8 0C525 0 512 0 499.2 0C486.3 0 473.7 0 460.8 0C448 0 435 0 422.2 0C409.3 0 396.7 0 384 0C371.3 0 358.7 0 345.8 0C333 0 320 0 307.2 0C294.3 0 281.7 0 268.8 0C256 0 243 0 230.2 0C217.3 0 204.7 0 192 0C179.3 0 166.7 0 153.8 0C141 0 128 0 115.2 0C102.3 0 89.7 0 76.8 0C64 0 51 0 38.2 0C25.3 0 12.7 0 6.3 0L0 0Z" fill="#383838" stroke-linecap="round" stroke-linejoin="miter"></path></svg>