<svg id="visual" viewBox="0 0 960 300" width="960" height="300" xmlns="http://www.w3.org/2000/svg" xmlns:xlink="http://www.w3.org/1999/xlink" version="1.1"><path d="M0 121L17.8 118C35.7 115 71.3 109 106.8 102.7C142.3 96.3 177.7 89.7 213.2 84.2C248.7 78.7 284.3 74.3 320 82.7C355.7 91 391.3 112 426.8 115.7C462.3 119.3 497.7 105.7 533.2 92.8C568.7 80 604.3 68 640 61.7C675.7 55.3 711.3 54.7 746.8 53.2C782.3 51.7 817.7 49.3 853.2 57.8C888.7 66.3 924.3 85.7 942.2 95.3L960 105L960 0L942.2 0C924.3 0 888.7 0 853.2 0C817.7 0 782.3 0 746.8 0C711.3 0 675.7 0 640 0C604.3 0 568.7 0 533.2 0C497.7 0 462.3 0 426.8 0C391.3 0 355.7 0 320 0C284.3 0 248.7 0 213.2 0C177.7 0 142.3 0 106.8 0C71.3 0 35.7 0 17.8 0L0 0Z" fill="#383838" stroke-linecap="round" stroke-linejoin="miter"></path></svg>