<svg id="visual" viewBox="0 0 960 100" width="960" height="100" xmlns="http://www.w3.org/2000/svg" xmlns:xlink="http://www.w3.org/1999/xlink" version="1.1"><path d="M0 46L7.3 48.5C14.7 51 29.3 56 43.8 53.8C58.3 51.7 72.7 42.3 87.2 36.3C101.7 30.3 116.3 27.7 131 33.3C145.7 39 160.3 53 174.8 50.7C189.3 48.3 203.7 29.7 218.2 30.8C232.7 32 247.3 53 261.8 60.7C276.3 68.3 290.7 62.7 305.2 56C319.7 49.3 334.3 41.7 349 41.8C363.7 42 378.3 50 392.8 47.7C407.3 45.3 421.7 32.7 436.2 25.3C450.7 18 465.3 16 480 24C494.7 32 509.3 50 523.8 58C538.3 66 552.7 64 567.2 56C581.7 48 596.3 34 611 37.3C625.7 40.7 640.3 61.3 654.8 66.2C669.3 71 683.7 60 698.2 53C712.7 46 727.3 43 741.8 40.5C756.3 38 770.7 36 785.2 37.7C799.7 39.3 814.3 44.7 829 53.5C843.7 62.3 858.3 74.7 872.8 73.5C887.3 72.3 901.7 57.7 916.2 48.3C930.7 39 945.3 35 952.7 33L960 31L960 0L952.7 0C945.3 0 930.7 0 916.2 0C901.7 0 887.3 0 872.8 0C858.3 0 843.7 0 829 0C814.3 0 799.7 0 785.2 0C770.7 0 756.3 0 741.8 0C727.3 0 712.7 0 698.2 0C683.7 0 669.3 0 654.8 0C640.3 0 625.7 0 611 0C596.3 0 581.7 0 567.2 0C552.7 0 538.3 0 523.8 0C509.3 0 494.7 0 480 0C465.3 0 450.7 0 436.2 0C421.7 0 407.3 0 392.8 0C378.3 0 363.7 0 349 0C334.3 0 319.7 0 305.2 0C290.7 0 276.3 0 261.8 0C247.3 0 232.7 0 218.2 0C203.7 0 189.3 0 174.8 0C160.3 0 145.7 0 131 0C116.3 0 101.7 0 87.2 0C72.7 0 58.3 0 43.8 0C29.3 0 14.7 0 7.3 0L0 0Z" fill="#383838" stroke-linecap="round" stroke-linejoin="miter"></path></svg>