<svg id="visual" viewBox="0 0 960 150" width="960" height="150" xmlns="http://www.w3.org/2000/svg" xmlns:xlink="http://www.w3.org/1999/xlink" version="1.1"><rect x="0" y="0" width="960" height="150" fill="#000"></rect><path d="M0 75L6.7 81.2C13.3 87.3 26.7 99.7 40 98.3C53.3 97 66.7 82 80 80C93.3 78 106.7 89 120 87.8C133.3 86.7 146.7 73.3 160 65C173.3 56.7 186.7 53.3 200 54.8C213.3 56.3 226.7 62.7 240 61.3C253.3 60 266.7 51 280 56.7C293.3 62.3 306.7 82.7 320 84.8C333.3 87 346.7 71 360 73.5C373.3 76 386.7 97 400 108.7C413.3 120.3 426.7 122.7 440 113.3C453.3 104 466.7 83 480 82.7C493.3 82.3 506.7 102.7 520 97.8C533.3 93 546.7 63 560 62.2C573.3 61.3 586.7 89.7 600 96.3C613.3 103 626.7 88 640 88C653.3 88 666.7 103 680 97.8C693.3 92.7 706.7 67.3 720 67.5C733.3 67.7 746.7 93.3 760 98C773.3 102.7 786.7 86.3 800 73C813.3 59.7 826.7 49.3 840 54.8C853.3 60.3 866.7 81.7 880 77.7C893.3 73.7 906.7 44.3 920 40.7C933.3 37 946.7 59 953.3 70L960 81L960 151L953.3 151C946.7 151 933.3 151 920 151C906.7 151 893.3 151 880 151C866.7 151 853.3 151 840 151C826.7 151 813.3 151 800 151C786.7 151 773.3 151 760 151C746.7 151 733.3 151 720 151C706.7 151 693.3 151 680 151C666.7 151 653.3 151 640 151C626.7 151 613.3 151 600 151C586.7 151 573.3 151 560 151C546.7 151 533.3 151 520 151C506.7 151 493.3 151 480 151C466.7 151 453.3 151 440 151C426.7 151 413.3 151 400 151C386.7 151 373.3 151 360 151C346.7 151 333.3 151 320 151C306.7 151 293.3 151 280 151C266.7 151 253.3 151 240 151C226.7 151 213.3 151 200 151C186.7 151 173.3 151 160 151C146.7 151 133.3 151 120 151C106.7 151 93.3 151 80 151C66.7 151 53.3 151 40 151C26.7 151 13.3 151 6.7 151L0 151Z" fill="#383838" stroke-linecap="round" stroke-linejoin="miter"></path></svg>