<svg id="visual" viewBox="0 0 960 150" width="960" height="150" xmlns="http://www.w3.org/2000/svg" xmlns:xlink="http://www.w3.org/1999/xlink" version="1.1"><rect x="0" y="0" width="960" height="150" fill="#f4f4f8"></rect><path d="M0 73L6.7 66.8C13.3 60.7 26.7 48.3 40 49.7C53.3 51 66.7 66 80 68C93.3 70 106.7 59 120 60.2C133.3 61.3 146.7 74.7 160 83C173.3 91.3 186.7 94.7 200 93.2C213.3 91.7 226.7 85.3 240 86.7C253.3 88 266.7 97 280 91.3C293.3 85.7 306.7 65.3 320 63.2C333.3 61 346.7 77 360 74.5C373.3 72 386.7 51 400 39.3C413.3 27.7 426.7 25.3 440 34.7C453.3 44 466.7 65 480 65.3C493.3 65.7 506.7 45.3 520 50.2C533.3 55 546.7 85 560 85.8C573.3 86.7 586.7 58.3 600 51.7C613.3 45 626.7 60 640 60C653.3 60 666.7 45 680 50.2C693.3 55.3 706.7 80.7 720 80.5C733.3 80.3 746.7 54.7 760 50C773.3 45.3 786.7 61.7 800 75C813.3 88.3 826.7 98.7 840 93.2C853.3 87.7 866.7 66.3 880 70.3C893.3 74.3 906.7 103.7 920 107.3C933.3 111 946.7 89 953.3 78L960 67L960 0L953.3 0C946.7 0 933.3 0 920 0C906.7 0 893.3 0 880 0C866.7 0 853.3 0 840 0C826.7 0 813.3 0 800 0C786.7 0 773.3 0 760 0C746.7 0 733.3 0 720 0C706.7 0 693.3 0 680 0C666.7 0 653.3 0 640 0C626.7 0 613.3 0 600 0C586.7 0 573.3 0 560 0C546.7 0 533.3 0 520 0C506.7 0 493.3 0 480 0C466.7 0 453.3 0 440 0C426.7 0 413.3 0 400 0C386.7 0 373.3 0 360 0C346.7 0 333.3 0 320 0C306.7 0 293.3 0 280 0C266.7 0 253.3 0 240 0C226.7 0 213.3 0 200 0C186.7 0 173.3 0 160 0C146.7 0 133.3 0 120 0C106.7 0 93.3 0 80 0C66.7 0 53.3 0 40 0C26.7 0 13.3 0 6.7 0L0 0Z" fill="#ffffff" stroke-linecap="round" stroke-linejoin="miter"></path></svg>