<svg id="visual" viewBox="0 0 960 150" width="960" height="150" xmlns="http://www.w3.org/2000/svg" xmlns:xlink="http://www.w3.org/1999/xlink" version="1.1"><rect x="0" y="0" width="960" height="150" fill="#000"></rect><path d="M0 64L6.2 62.2C12.3 60.3 24.7 56.7 37 64.2C49.3 71.7 61.7 90.3 74 87.3C86.3 84.3 98.7 59.7 111 52.3C123.3 45 135.7 55 148 70C160.3 85 172.7 105 185 97.3C197.3 89.7 209.7 54.3 221.8 40.3C234 26.3 246 33.7 258.2 38.2C270.3 42.7 282.7 44.3 295 48.3C307.3 52.3 319.7 58.7 332 65C344.3 71.3 356.7 77.7 369 71.8C381.3 66 393.7 48 406 53.8C418.3 59.7 430.7 89.3 443 98.5C455.3 107.7 467.7 96.3 480 90C492.3 83.7 504.7 82.3 517 76.8C529.3 71.3 541.7 61.7 554 51.3C566.3 41 578.7 30 591 30C603.3 30 615.7 41 628 59C640.3 77 652.7 102 665 103.8C677.3 105.7 689.7 84.3 701.8 81.3C714 78.3 726 93.7 738.2 101.5C750.3 109.3 762.7 109.7 775 93.8C787.3 78 799.7 46 812 43.8C824.3 41.7 836.7 69.3 849 70.8C861.3 72.3 873.7 47.7 886 40C898.3 32.3 910.7 41.7 923 48.3C935.3 55 947.7 59 953.8 61L960 63L960 151L953.8 151C947.7 151 935.3 151 923 151C910.7 151 898.3 151 886 151C873.7 151 861.3 151 849 151C836.7 151 824.3 151 812 151C799.7 151 787.3 151 775 151C762.7 151 750.3 151 738.2 151C726 151 714 151 701.8 151C689.7 151 677.3 151 665 151C652.7 151 640.3 151 628 151C615.7 151 603.3 151 591 151C578.7 151 566.3 151 554 151C541.7 151 529.3 151 517 151C504.7 151 492.3 151 480 151C467.7 151 455.3 151 443 151C430.7 151 418.3 151 406 151C393.7 151 381.3 151 369 151C356.7 151 344.3 151 332 151C319.7 151 307.3 151 295 151C282.7 151 270.3 151 258.2 151C246 151 234 151 221.8 151C209.7 151 197.3 151 185 151C172.7 151 160.3 151 148 151C135.7 151 123.3 151 111 151C98.7 151 86.3 151 74 151C61.7 151 49.3 151 37 151C24.7 151 12.3 151 6.2 151L0 151Z" fill="#383838" stroke-linecap="round" stroke-linejoin="miter"></path></svg>